<svg viewBox="0 0 26 37" fill="none" xmlns="http://www.w3.org/2000/svg">
    <path fill-rule="evenodd" clip-rule="evenodd" d="M22 28.987V37H4V28.987C4 26.6947 6.94038 24.0777 8.90909 23H17.0909C19.0775 24.0966 22 26.7211 22 28.987Z" fill="#117938"/>
    <path fill-rule="evenodd" clip-rule="evenodd" d="M16.9873 23.3217C20.0627 22.2386 22.5642 19.9378 23.9128 16.9981C23.9417 16.9994 23.9708 17 24 17C25.1046 17 26 16.1046 26 15V13C26 12.2504 25.5876 11.597 24.9772 11.2546C24.5923 4.97438 19.3771 0 13 0C6.62292 0 1.40766 4.97438 1.02277 11.2546C0.412435 11.597 0 12.2504 0 13V15C0 16.1046 0.89543 17 2 17C2.02923 17 2.05831 16.9994 2.08723 16.9981C3.43581 19.9378 5.93726 22.2386 9.01275 23.3217C9.17657 25.3804 10.8991 27 13 27C15.1009 27 16.8234 25.3804 16.9873 23.3217Z" fill="#E7E9E9"/>
    <path fill-rule="evenodd" clip-rule="evenodd" d="M9.8 17.333C9.8 18.714 8.72572 19.8333 7.40054 19.8333C6.07482 19.8333 5 18.714 5 17.333C5 15.9527 6.07482 14.8333 7.40054 14.8333C8.72572 14.8333 9.8 15.9527 9.8 17.333Z" fill="#E3B0A8"/>
    <path fill-rule="evenodd" clip-rule="evenodd" d="M21 17.333C21 18.714 19.9257 19.8333 18.6005 19.8333C17.2748 19.8333 16.2 18.714 16.2 17.333C16.2 15.9527 17.2748 14.8333 18.6005 14.8333C19.9257 14.8333 21 15.9527 21 17.333Z" fill="#E3B0A8"/>
    <path d="M13.6591 13.6114C13.443 13.6587 13.2309 13.5145 13.1854 13.2893C13.14 13.0641 13.2784 12.8432 13.4946 12.7959C14.0325 12.6781 14.4822 12.7687 14.7298 13.2013C15.2107 14.0429 15.0432 15.0127 14.2848 15.6844C13.8439 16.0748 13.2252 16.2148 12.793 15.9425C12.604 15.8234 12.5434 15.5672 12.6577 15.3703C12.7721 15.1734 13.018 15.1104 13.207 15.2295C13.3016 15.2891 13.5628 15.2299 13.7666 15.0495C14.231 14.6382 14.3213 14.1157 14.0425 13.6278C14.0163 13.582 13.9003 13.5586 13.6591 13.6114Z" fill="#3E3832"/>
    <path d="M6.21194 10.7677C6.15836 10.5445 6.28867 10.3183 6.50299 10.2624C6.7173 10.2066 6.93448 10.3424 6.98806 10.5656C7.21417 11.5077 7.60674 11.9167 8.2 11.9167C8.79327 11.9167 9.18583 11.5077 9.41194 10.5656C9.46552 10.3424 9.6827 10.2066 9.89701 10.2624C10.1113 10.3183 10.2416 10.5445 10.1881 10.7677C9.88084 12.0478 9.20674 12.75 8.2 12.75C7.19327 12.75 6.51917 12.0478 6.21194 10.7677Z" fill="#3E3832"/>
    <path d="M15.8119 10.7677C15.7584 10.5445 15.8887 10.3183 16.103 10.2624C16.3173 10.2066 16.5345 10.3424 16.5881 10.5656C16.8142 11.5077 17.2067 11.9167 17.8 11.9167C18.3933 11.9167 18.7858 11.5077 19.0119 10.5656C19.0655 10.3424 19.2827 10.2066 19.497 10.2624C19.7113 10.3183 19.8416 10.5445 19.7881 10.7677C19.4808 12.0478 18.8067 12.75 17.8 12.75C16.7933 12.75 16.1192 12.0478 15.8119 10.7677Z" fill="#3E3832"/>
    <path d="M12.3907 21.0913C12.1985 21.0883 12.0012 21.0851 11.8 21.0851C9.81177 21.0851 8.2 19.7913 8.2 18.1953C8.2 16.5993 9.26582 15.6667 10.6 15.6667C10.9596 15.6667 11.3192 15.8126 11.7151 15.9733C12.2 16.1702 12.7394 16.3891 13.4 16.3891C14.0606 16.3891 14.6 16.1702 15.0849 15.9733C15.4808 15.8126 15.8404 15.6667 16.2 15.6667C17.5342 15.6667 18.6 16.5993 18.6 18.1953C18.6 19.7913 16.9882 21.0851 15 21.0851C14.7988 21.0851 14.6015 21.0883 14.4093 21.0913C14.0524 21.0969 13.7133 21.1022 13.4 21.0869C13.0867 21.1022 12.7476 21.0969 12.3907 21.0913Z" fill="#6AB889"/>
    <path fill-rule="evenodd" clip-rule="evenodd" d="M13.4 20.6667C14.9464 20.6667 16.2 19.7339 16.2 18.5833C16.2 17.4327 14.9464 16.5 13.4 16.5C11.8536 16.5 10.6 17.4327 10.6 18.5833C10.6 19.7339 11.8536 20.6667 13.4 20.6667Z" fill="white"/>
    <path fill-rule="evenodd" clip-rule="evenodd" d="M15.8 19C15.8 18.7699 15.6209 18.5833 15.4 18.5833H11.4C11.1791 18.5833 11 18.7699 11 19V21.3148C11 22.6539 12.0998 23.5833 13.4 23.5833C14.6111 23.5833 15.8 22.4825 15.8 21.3148V19ZM11.8 21.3148V19.4167H15V21.3148C15 21.999 14.1889 22.75 13.4 22.75C12.5091 22.75 11.8 22.1507 11.8 21.3148Z" fill="white"/>
    <path d="M9.7294 1.27106C9.80289 1.00488 10.0783 0.848676 10.3444 0.922169C10.6106 0.995663 10.7668 1.27103 10.6933 1.53721C10.5931 1.90035 10.6902 2.05954 11.3384 2.64321C11.9967 3.23593 12.1494 4.01201 11.7839 4.85C11.6735 5.10311 11.3788 5.2188 11.1257 5.10841C10.8726 4.99801 10.7569 4.70332 10.8673 4.45021C11.0637 3.99994 11.0019 3.68581 10.6693 3.38636C9.75769 2.56555 9.49216 2.13031 9.7294 1.27106Z" fill="#3E3832"/>
    <path d="M12.6637 0.998355C12.8277 0.77619 13.1408 0.729041 13.363 0.893044C13.5851 1.05705 13.6323 1.3701 13.4683 1.59227C13.2445 1.89536 13.2781 2.07877 13.6742 2.85599C14.0763 3.64525 13.9407 4.42449 13.2992 5.07584C13.1054 5.27258 12.7888 5.27498 12.5921 5.08121C12.3954 4.88743 12.393 4.57086 12.5867 4.37412C12.9314 4.02414 12.9863 3.70873 12.7831 3.30998C12.2263 2.217 12.1343 1.71551 12.6637 0.998355Z" fill="#3E3832"/>
    <path d="M15.5381 0.974551C15.7627 0.813939 16.075 0.865836 16.2356 1.09047C16.3963 1.3151 16.3444 1.62739 16.1197 1.78801C15.8133 2.00712 15.7886 2.19195 15.925 3.0535C16.0636 3.9284 15.6939 4.62761 14.8824 5.04884C14.6374 5.17607 14.3355 5.08052 14.2083 4.83544C14.0811 4.59035 14.1766 4.28853 14.4217 4.1613C14.8577 3.93497 15.0073 3.65195 14.9373 3.20993C14.7454 1.99836 14.813 1.49301 15.5381 0.974551Z" fill="#3E3832"/>
</svg>
