<svg viewBox="0 0 22 19" fill="none" xmlns="http://www.w3.org/2000/svg">
    <path d="M21.6374 5.50068H0.734863L11.1862 0L21.6374 5.50068Z" fill="#005B82"/>
    <path d="M11.2736 4.53431C11.9295 4.53431 12.4612 4.01191 12.4612 3.36749C12.4612 2.72308 11.9295 2.20068 11.2736 2.20068C10.6177 2.20068 10.0859 2.72308 10.0859 3.36749C10.0859 4.01191 10.6177 4.53431 11.2736 4.53431Z" fill="#CCDEE6"/>
    <rect x="0.734863" y="15.9517" width="20.9026" height="2.75034" fill="#337C9B"/>
    <rect x="0.734863" y="5.50049" width="20.9026" height="2.20027" fill="#337C9B"/>
    <rect x="6.23535" y="7.70068" width="1.6502" height="8.25102" fill="#669DB4"/>
    <rect x="2.38477" y="7.70068" width="1.6502" height="8.25102" fill="#669DB4"/>
    <rect x="10.0859" y="7.70068" width="1.6502" height="8.25102" fill="#669DB4"/>
    <rect x="13.9365" y="7.70068" width="1.6502" height="8.25102" fill="#669DB4"/>
    <rect x="17.7871" y="7.70068" width="1.6502" height="8.25102" fill="#669DB4"/>
</svg>
