<svg viewBox="0 0 23 13" fill="none" xmlns="http://www.w3.org/2000/svg">
    <rect x="1.16357" width="13.964" height="8.1229" fill="#E3B0A8"/>
    <rect x="12.2183" width="1.7455" height="8.1229" fill="#F1D8D4"/>
    <rect x="0.582031" y="0.625" width="13.964" height="8.1229" fill="#C2EAF7"/>
    <rect x="11.6367" y="0.625" width="1.7455" height="8.1229" fill="#E0F5FB"/>
    <rect y="1.24951" width="13.964" height="8.1229" fill="#9BD0B0"/>
    <rect x="11.0547" y="1.24951" width="1.7455" height="8.1229" fill="#CDE7D8"/>
    <path fill-rule="evenodd" clip-rule="evenodd" d="M1.31543 4.57138V2.66454H1.62036L2.80026 4.16166V2.66454H3.08527V4.57138H2.78034L1.60044 3.07296V4.57138H1.31543ZM3.49461 3.64281C3.49461 3.3263 3.59472 3.07852 3.79495 2.89946C3.99517 2.72039 4.25362 2.63086 4.57031 2.63086C4.77769 2.63086 4.96463 2.67292 5.13114 2.75703C5.29766 2.84114 5.42458 2.95842 5.51193 3.10887C5.59927 3.25932 5.64294 3.42993 5.64294 3.6207C5.64294 3.81407 5.59697 3.98706 5.50503 4.13968C5.41309 4.2923 5.28284 4.40784 5.11429 4.48632C4.94573 4.5648 4.76389 4.60403 4.56878 4.60403C4.35731 4.60403 4.16833 4.56068 4.00181 4.47396C3.8353 4.38725 3.70914 4.26888 3.62333 4.11887C3.53752 3.96885 3.49461 3.81017 3.49461 3.64281ZM3.80086 3.64666C3.80086 3.87645 3.87364 4.05746 4.01922 4.1897C4.16479 4.32194 4.34739 4.38806 4.56702 4.38806C4.79075 4.38806 4.97488 4.32129 5.11943 4.18775C5.26398 4.05421 5.33626 3.86474 5.33626 3.61934C5.33626 3.46413 5.30535 3.32864 5.24355 3.21287C5.18175 3.09711 5.09134 3.00736 4.97233 2.94363C4.85331 2.87989 4.71975 2.84802 4.57162 2.84802C4.36118 2.84802 4.18011 2.90937 4.02841 3.03207C3.87671 3.15477 3.80086 3.35963 3.80086 3.64666ZM6.01372 4.57138V2.66454H6.31099V3.61016L7.42653 2.66454H7.82954L6.88715 3.43716L7.87091 4.57138H7.47863L6.67875 3.60625L6.31099 3.91062V4.57138H6.01372Z" fill="#117938"/>
    <path fill-rule="evenodd" clip-rule="evenodd" d="M18.5692 3.72656H21.9413C22.174 3.72656 22.3628 3.92651 22.3628 4.17287V10.8675C22.3628 11.1139 22.174 11.3138 21.9413 11.3138H18.5692C18.3373 11.3138 18.1476 11.1139 18.1476 10.8675V4.17287C18.1476 3.92651 18.3373 3.72656 18.5692 3.72656Z" fill="#337C9B"/>
    <path fill-rule="evenodd" clip-rule="evenodd" d="M13.3922 8.15417C13.4556 8.25475 13.4255 8.38771 13.3249 8.45113C13.3155 8.45706 13.3057 8.46225 13.2955 8.46665L10.5602 9.64876L5.50202 7.8307C4.35487 7.50419 3.27338 7.05363 2.25696 8.06415C2.15912 8.16236 2.1141 8.30192 2.13488 8.4389C2.15739 8.57674 2.24397 8.6939 2.36864 8.75593C4.76079 9.94565 6.36854 10.8597 7.54253 11.5273C9.31652 12.5361 10.1658 12.9996 11.1589 12.9996C11.9918 12.9996 12.9259 12.6731 14.5952 12.0692C15.4436 11.7617 16.4999 11.38 17.8514 10.9312C18.028 10.8726 18.1475 10.7081 18.1475 10.5228V4.99679C18.1475 4.76083 17.9326 4.56934 17.6678 4.56934H16.2286C14.9242 4.56934 13.9225 4.98901 13.2316 5.41237H9.29565C8.59727 5.41237 8.03111 5.97852 8.03111 6.67691C8.03111 7.3753 8.59727 7.94145 9.29565 7.94145H13.0065C13.1631 7.94145 13.3087 8.02176 13.3922 8.15417Z" fill="#FFD399"/>
</svg>
