<svg viewBox="0 0 26 20" fill="none" xmlns="http://www.w3.org/2000/svg">
    <rect x="2" width="24" height="13" fill="#E3B0A8"/>
    <rect x="21" width="3" height="13" fill="#F1D8D4"/>
    <rect x="1" y="1" width="24" height="13" fill="#C2EAF7"/>
    <rect x="20" y="1" width="3" height="13" fill="#E0F5FB"/>
    <rect y="2" width="24" height="13" fill="#9BD0B0"/>
    <rect x="19" y="2" width="3" height="13" fill="#CDE7D8"/>
    <path fill-rule="evenodd" clip-rule="evenodd" d="M3 7.93408V4.06856H3.60472L5.9446 7.10349V4.06856H6.50982V7.93408H5.9051L3.56522 4.89651V7.93408H3ZM7.32118 6.05142C7.32118 5.4098 7.51971 4.90749 7.91678 4.5445C8.31386 4.1815 8.8264 4 9.45442 4C9.86567 4 10.2364 4.08526 10.5666 4.25577C10.8968 4.42628 11.1486 4.66403 11.3218 4.96902C11.495 5.27401 11.5816 5.61986 11.5816 6.00659C11.5816 6.3986 11.4904 6.74928 11.3081 7.05867C11.1258 7.36805 10.8675 7.60228 10.5332 7.76137C10.1989 7.92046 9.83832 8 9.45138 8C9.03202 8 8.65724 7.91211 8.32702 7.73632C7.9968 7.56054 7.74661 7.32059 7.57644 7.01648C7.40626 6.71237 7.32118 6.39069 7.32118 6.05142ZM7.92894 6.05933C7.92894 6.52516 8.07328 6.89211 8.36197 7.16018C8.65066 7.42826 9.01278 7.56229 9.44834 7.56229C9.89201 7.56229 10.2572 7.42694 10.5438 7.15623C10.8305 6.88552 10.9738 6.50143 10.9738 6.00396C10.9738 5.6893 10.9125 5.41464 10.79 5.17996C10.6674 4.94529 10.4881 4.76335 10.2521 4.63415C10.0161 4.50494 9.75121 4.44034 9.45746 4.44034C9.04013 4.44034 8.68104 4.56471 8.3802 4.81345C8.07936 5.06219 7.92894 5.47747 7.92894 6.05933ZM12.317 7.93408V4.06856H12.9065V5.9855L15.1187 4.06856H15.918L14.0491 5.63481L16 7.93408H15.2221L13.6358 5.97759L12.9065 6.59459V7.93408H12.317Z" fill="#117938"/>
    <path d="M5 20C7.20914 20 9 18.2091 9 16C9 13.7909 7.20914 12 5 12C2.79086 12 1 13.7909 1 16C1 18.2091 2.79086 20 5 20Z" fill="#FFD399"/>
    <path fill-rule="evenodd" clip-rule="evenodd" d="M8 17C8 18.6569 9.34315 20 11 20C12.6569 20 14 18.6569 14 17C14 15.3431 12.6569 14 11 14C9.34315 14 8 15.3431 8 17ZM12 17C12 17.5523 11.5523 18 11 18C10.4477 18 10 17.5523 10 17C10 16.4477 10.4477 16 11 16C11.5523 16 12 16.4477 12 17Z" fill="#E7E9E9"/>
</svg>
