<svg viewBox="0 0 80 80" fill="none" xmlns="http://www.w3.org/2000/svg">
    <g mask="url(#mask0)">
        <path fill-rule="evenodd" clip-rule="evenodd" d="M54.7888 38.0527C53.4644 42.335 50.8715 45.8897 47.5485 48.0651L47.7187 49.9721L47.7178 50.0497L45.9215 65.7693H34.5291L34.4818 65.4391L32.2794 50.0226L32.361 48.0945C29.0213 45.9248 26.4137 42.3643 25.0817 38.0706C25.0366 38.0748 24.9908 38.077 24.9445 38.077C24.0829 38.077 23.4004 37.3268 23.4004 36.418V31.2752C23.4004 30.666 23.7071 30.1278 24.1687 29.8391C24.889 20.2381 31.656 12.6924 39.9321 12.6924C48.186 12.6924 54.9393 20.1975 55.6903 29.7612C56.2294 30.0224 56.5989 30.6057 56.5989 31.2752V36.418C56.5989 37.3272 55.9173 38.077 55.0548 38.077C54.9639 38.077 54.8751 38.0687 54.7888 38.0527Z" fill="#F1F1F1"/>
        <path fill-rule="evenodd" clip-rule="evenodd" d="M47.1474 48.5975C47.0826 52.0304 43.9073 55.5522 39.9997 55.5522C36.0751 55.5522 32.8892 51.9997 32.8514 48.5527C30.8179 49.0663 27.7139 50.615 25.1519 53.2032C22.6709 55.7097 20.6982 59.4771 20.6982 62.3997V80.0004H59.3012V62.3997C59.3012 59.4712 57.2859 55.6973 54.7591 53.188C52.2323 50.6788 49.1939 49.151 47.1474 48.5975Z" fill="#0C5EA8"/>
        <path fill-rule="evenodd" clip-rule="evenodd" d="M32.7231 48.6712C30.85 49.3488 27.7078 50.8297 25.3307 53.0787C18.3822 51.5382 15.2939 47.8774 15.2939 47.8774C15.2939 47.8774 21.6957 41.6559 21.6996 30.7743V30.7628C21.6996 18.0212 28.6037 9.23047 39.9782 9.23047C51.3543 9.23047 58.2584 18.0212 58.2584 30.7628H58.2993C58.2993 41.652 64.7057 47.8774 64.7057 47.8774C64.7057 47.8774 61.6175 51.5382 54.6689 53.0766L54.6585 53.0787C52.3625 50.9977 49.0325 49.3927 47.2209 48.7141L47.223 48.7134L47.151 47.9068L47.1899 47.84C50.6082 45.6614 53.2606 41.9912 54.5394 37.5564C54.6959 37.6432 54.8728 37.692 55.0598 37.692C55.7 37.692 56.2181 37.1227 56.2181 36.4176V31.2749C56.2181 30.6715 55.8388 30.1671 55.3283 30.034C55.3278 30.0271 55.3274 30.0201 55.3269 30.0131C39.1651 31.81 33.3434 20.7696 32.8656 20.7689C32.8656 20.7689 27.4983 24.6151 24.9331 29.1879C24.9331 29.1879 24.5421 30.0511 24.5402 30.0802C24.101 30.2611 23.7878 30.7273 23.7878 31.2749V36.4176C23.7878 37.1227 24.3072 37.692 24.946 37.692C25.0876 37.692 25.2232 37.6642 25.3485 37.6132C26.6414 42.0501 29.3106 45.7163 32.745 47.8805L32.7577 47.9068L32.7253 48.6712H32.7231Z" fill="#C86151"/>
        <path fill-rule="evenodd" clip-rule="evenodd" d="M34.4795 33.7473C33.4819 33.8278 33.2026 32.254 33.5032 31.2262C33.5598 31.0314 33.89 30.1445 34.4747 30.1445C35.0586 30.1445 35.3165 30.6293 35.3523 30.7127C35.7819 31.7146 35.5709 33.6588 34.4795 33.7473Z" fill="#262626"/>
        <path fill-rule="evenodd" clip-rule="evenodd" d="M46.0503 33.7473C47.0479 33.8278 47.3272 32.254 47.0266 31.2262C46.97 31.0314 46.6398 30.1445 46.0551 30.1445C45.4712 30.1445 45.2133 30.6293 45.1775 30.7127C44.7479 31.7146 44.9589 33.6588 46.0503 33.7473Z" fill="#262626"/>
        <path d="M40.6342 35.2985C41.2308 35.1967 41.6382 35.2606 41.7842 35.4591C42.3349 36.2095 42.1588 37.0034 41.2139 37.6552C40.717 37.9977 40.0332 38.1182 39.6712 37.9406C39.4941 37.8538 39.2871 37.9425 39.2088 38.1387C39.1304 38.335 39.2104 38.5645 39.3875 38.6513C39.9858 38.9449 40.906 38.7827 41.5841 38.3151C42.8682 37.4294 43.1621 36.1051 42.3278 34.9684C41.9747 34.4881 41.3498 34.3901 40.5276 34.5304C40.3362 34.563 40.205 34.7615 40.2345 34.9736C40.2639 35.1857 40.4429 35.3312 40.6342 35.2985Z" fill="#262626"/>
        <path d="M44.9487 40.4551C44.9136 40.5291 44.8333 40.6707 44.7042 40.8573C44.4856 41.1731 44.2111 41.4897 43.8777 41.7849C42.8842 42.6648 41.5911 43.1735 39.9453 43.127C38.3406 43.0816 37.0533 42.5807 36.044 41.773C35.6734 41.4764 35.3675 41.1588 35.123 40.8423C34.9788 40.6556 34.8887 40.514 34.8493 40.4403C34.7546 40.2629 34.5218 40.1898 34.3293 40.2771C34.1368 40.3644 34.0576 40.579 34.1523 40.7565C34.2094 40.8633 34.3204 41.0379 34.4901 41.2576C34.7688 41.6183 35.1153 41.9781 35.5347 42.3137C36.674 43.2255 38.1301 43.7921 39.9215 43.8427C41.787 43.8955 43.2784 43.3087 44.4159 42.3013C44.7963 41.9645 45.1089 41.6039 45.3591 41.2424C45.5112 41.0226 45.6101 40.8482 45.6606 40.7416C45.7465 40.5604 45.6567 40.3494 45.4601 40.2702C45.2635 40.1911 45.0345 40.2739 44.9487 40.4551Z" fill="#262626"/>
        <path fill-rule="evenodd" clip-rule="evenodd" d="M31.303 9.05951C33.9056 7.69613 36.8496 6.92285 39.9712 6.92285C43.2815 6.92285 46.3942 7.78734 49.109 9.30818V9.60866C54.1005 12.5204 57.4771 17.7455 57.6382 23.7419H58.7019C59.4565 23.7419 60.0738 24.3382 60.0738 25.0671V36.9368C60.0738 37.6656 59.4565 38.262 58.7019 38.262L58.0498 38.262C56.7901 42.338 50.8499 45.4428 43.6523 45.5435V45.9812C43.6523 46.4988 43.2141 46.9229 42.6783 46.9229H37.2648C36.7281 46.9229 36.2899 46.4988 36.2899 45.9812V43.9591C36.2899 43.4415 36.7281 43.0175 37.2648 43.0175H42.6783C43.2141 43.0175 43.6523 43.4415 43.6523 43.9591V44.6517C49.5126 44.0702 54.328 41.5827 56.3485 38.262H55.7539C54.9993 38.262 54.382 37.6656 54.382 36.9368V25.0671C54.382 24.3382 54.9993 23.7419 55.7539 23.7419H56.4418C55.6953 18.9047 52.9557 14.7438 49.109 12.1645V12.1947C46.4281 10.4759 43.3065 9.48591 39.9712 9.48591C36.8286 9.48591 33.8758 10.3629 31.303 11.9009V11.8609C27.2102 14.41 24.2769 18.71 23.5004 23.7419H24.2467C25.0013 23.7419 25.6186 24.3382 25.6186 25.0671V36.9368C25.6186 37.6656 25.0013 38.262 24.2467 38.262H21.2987C20.5441 38.262 19.9268 37.6656 19.9268 36.9368V25.0671C19.9268 24.3382 20.5441 23.7419 21.2987 23.7419H22.3039C22.4701 17.5592 26.0543 12.1963 31.303 9.34396V9.05951Z" fill="#262626"/>
        <path fill-rule="evenodd" clip-rule="evenodd" d="M53.9563 72.4997H41.0429C40.4666 72.4997 40 72.026 40 71.4409V64.3926C40 63.8075 40.4666 63.333 41.0429 63.333H53.9563C54.5326 63.333 55 63.8075 55 64.3926V71.4409C55 72.026 54.5326 72.4997 53.9563 72.4997Z" fill="white"/>
        <path fill-rule="evenodd" clip-rule="evenodd" d="M48.276 64.7887H46.9378C46.8387 64.7887 46.7588 64.7092 46.7588 64.6106V64.3861C46.7588 64.2882 46.8387 64.208 46.9378 64.208H48.276C48.3751 64.208 48.455 64.2882 48.455 64.3861V64.6106C48.455 64.7092 48.3751 64.7887 48.276 64.7887Z" fill="#262626"/>
        <path fill-rule="evenodd" clip-rule="evenodd" d="M47.2197 64.5833H47.995V62.5H47.2197V64.5833Z" fill="#6A6A6A"/>
        <path fill-rule="evenodd" clip-rule="evenodd" d="M47.6585 70.8313C46.0486 70.8313 44.7432 69.526 44.7432 67.9159C44.7432 66.3056 46.0486 65 47.6585 65C49.2689 65 50.5745 66.3056 50.5745 67.9159C50.5745 69.526 49.2689 70.8313 47.6585 70.8313Z" fill="#C30000"/>
        <path fill-rule="evenodd" clip-rule="evenodd" d="M43.333 69.1887L43.9289 67.7139H44.5015L43.9064 69.1887H43.333Z" fill="#C30000"/>
        <path fill-rule="evenodd" clip-rule="evenodd" d="M50.6865 69.1887L51.2748 67.7139H51.587L50.9987 69.1887H50.6865Z" fill="#C30000"/>
        <path fill-rule="evenodd" clip-rule="evenodd" d="M51.8438 69.1887L52.432 67.7139H52.5977L52.0095 69.1887H51.8438Z" fill="#C30000"/>
        <path fill-rule="evenodd" clip-rule="evenodd" d="M50.145 67.7139H49.6267C49.6267 67.7139 49.591 67.7139 49.5784 67.7454L49.2915 68.6235L49.0049 67.7454C48.9923 67.7139 48.9564 67.7139 48.9564 67.7139H47.9598C47.9382 67.7139 47.9201 67.7319 47.9201 67.7533V68.0515C47.9201 67.815 47.6684 67.7139 47.5211 67.7139C47.191 67.7139 46.9701 67.9313 46.9013 68.2618C46.8976 68.0425 46.8793 67.9639 46.8203 67.8835C46.7931 67.8441 46.7539 67.8109 46.7112 67.7835C46.6233 67.732 46.5444 67.7139 46.3747 67.7139H46.1755C46.1755 67.7139 46.1395 67.7139 46.1268 67.7454L45.9456 68.1946V67.7533C45.9456 67.7319 45.9276 67.7139 45.9061 67.7139H45.4452C45.4452 67.7139 45.4096 67.7139 45.3966 67.7454L45.2082 68.2125C45.2082 68.2125 45.1894 68.2592 45.2324 68.2592H45.4096V69.1491C45.4096 69.1712 45.427 69.1887 45.4492 69.1887H45.9061C45.9276 69.1887 45.9456 69.1712 45.9456 69.1491V68.2592H46.1237C46.2259 68.2592 46.2475 68.262 46.2873 68.2805C46.3112 68.2895 46.3328 68.3078 46.3446 68.3289C46.3687 68.3743 46.3747 68.4287 46.3747 68.5894V69.1491C46.3747 69.1712 46.3925 69.1887 46.4144 69.1887H46.8523C46.8523 69.1887 46.9018 69.1887 46.9214 69.1399L47.0185 68.9C47.1475 69.0807 47.3599 69.1887 47.6239 69.1887H47.6816C47.6816 69.1887 47.7314 69.1887 47.7511 69.1399L47.9201 68.7212V69.1491C47.9201 69.1712 47.9382 69.1887 47.9598 69.1887H48.4069C48.4069 69.1887 48.4562 69.1887 48.476 69.1399C48.476 69.1399 48.6548 68.6959 48.6555 68.6926H48.6558C48.6626 68.6557 48.616 68.6557 48.616 68.6557H48.4564V67.8939L48.9584 69.1399C48.978 69.1887 49.0275 69.1887 49.0275 69.1887H49.5556C49.5556 69.1887 49.6053 69.1887 49.6249 69.1399L50.1815 67.7616C50.2008 67.7139 50.145 67.7139 50.145 67.7139ZM47.9201 68.6557H47.6199C47.5003 68.6557 47.4031 68.5589 47.4031 68.4392C47.4031 68.3197 47.5003 68.2223 47.6199 68.2223H47.7038C47.8231 68.2223 47.9201 68.3197 47.9201 68.4392V68.6557Z" fill="white"/>
    </g>
</svg>
